#tb 0: 1/60
#media_type 0: video
#codec_id 0: rawvideo
#dimensions 0: 320x240
#sar 0: 1/1
0,          0,          0,        1,   307200, 0xb49cf016
0,          1,          1,        1,   307200, 0x95d191b2
0,          2,          2,        1,   307200, 0x20e5173b
0,          3,          3,        1,   307200, 0x5378b13c
0,          4,          4,        1,   307200, 0x3e304543
0,          5,          5,        1,   307200, 0x2f131cdb
0,          6,          6,        1,   307200, 0x83dbe321
0,          7,          7,        1,   307200, 0xb81fc682
0,          8,          8,        1,   307200, 0xb32a8644
0,          9,          9,        1,   307200, 0xc5c8b0f8
0,         10,         10,        1,   307200, 0x27945d0a
0,         11,         11,        1,   307200, 0x444c7640
0,         12,         12,        1,   307200, 0xcba4c6bb
0,         13,         13,        1,   307200, 0xf923c7a3
0,         14,         14,        1,   307200, 0x88149757
0,         15,         15,        1,   307200, 0x4bdfd3ca
0,         16,         16,        1,   307200, 0x1c279695
0,         17,         17,        1,   307200, 0x634cc809
0,         18,         18,        1,   307200, 0xda8c6c41
0,         19,         19,        1,   307200, 0x2136c986
0,         20,         20,        1,   307200, 0x457576a8
0,         21,         21,        1,   307200, 0xe2337c57
0,         22,         22,        1,   307200, 0x8ed517c9
0,         23,         23,        1,   307200, 0x4fd35f99
0,         24,         24,        1,   307200, 0x4237e892
0,         25,         25,        1,   307200, 0x1383a9d8
0,         26,         26,        1,   307200, 0xc7195735
0,         27,         27,        1,   307200, 0x0e058165
0,         28,         28,        1,   307200, 0x0b81f345
0,         29,         29,        1,   307200, 0x2ddf2f0a
0,         30,         30,        1,   307200, 0x0b58bcf7
0,         31,         31,        1,   307200, 0x1b684a1d
0,         32,         32,        1,   307200, 0x1e44f1cf
0,         33,         33,        1,   307200, 0x3ed6b5d8
0,         34,         34,        1,   307200, 0x00881a40
0,         35,         35,        1,   307200, 0x2c3d1406
0,         36,         36,        1,   307200, 0xbd67248a
0,         37,         37,        1,   307200, 0x46261913
0,         38,         38,        1,   307200, 0xe5b2bbaa
0,         39,         39,        1,   307200, 0x0e4455cd
0,         40,         40,        1,   307200, 0xb4943212
0,         41,         41,        1,   307200, 0xf96b6808
0,         42,         42,        1,   307200, 0x58adad3f
0,         43,         43,        1,   307200, 0x978413f0
0,         44,         44,        1,   307200, 0x0037320a
0,         45,         45,        1,   307200, 0xaac8e1ca
0,         46,         46,        1,   307200, 0xc3578407
0,         47,         47,        1,   307200, 0xfc29c675
0,         48,         48,        1,   307200, 0x22ed5b5a
0,         49,         49,        1,   307200, 0x6d58e21e
0,         50,         50,        1,   307200, 0xbf62b4c3
0,         51,         51,        1,   307200, 0xbd5edb2d
0,         52,         52,        1,   307200, 0x55528432
0,         53,         53,        1,   307200, 0xa3f1e514
0,         54,         54,        1,   307200, 0xba073e6f
0,         55,         55,        1,   307200, 0x29b8df00
0,         56,         56,        1,   307200, 0x1517512b
0,         57,         57,        1,   307200, 0x4e740b42
0,         58,         58,        1,   307200, 0xbd6b7053
0,         59,         59,        1,   307200, 0xe73f29ef
